<svg width="768" height="512" version="1.1" viewBox="0 0 768 512" xml:space="preserve" xmlns="http://www.w3.org/2000/svg"><g transform="translate(0,28)" fill="none"><g transform="matrix(.50198 0 0 .56802 495.82 -17.165)"><g id="signs"><path id="Path" d="m363.24 93.84c-8.62 165.62-18.51 376.82-18.51 541.34 0 1.38 1.119 2.5 2.5 2.5h22.21c1.38 0 2.5-1.12 2.5-2.5 0-163.89 9.87-374.64 18.47-539.93 1.18-22.77 0.89-48.51-17.63-65.77-16-14.93-37.64-15.82-58.41-15.44-23.78 0.43-68 1.23-91.11 32-7.06 9.42-11.47 20.75-13.5 34.64-1.65 11.35-1.54 22.94-1.44 34.16 0 2.67 0.05 5.34 0.05 8 0 1.38 1.119 2.5 2.5 2.5h22.2c1.38 0 2.5-1.12 2.5-2.5 0-2.74 0-5.5-0.05-8.26-0.19-20.08-0.36-39 9.51-52.22 13.93-18.6 43.35-20.67 69.83-21.15 15.84-0.29 30.76 0.11 39.38 8.14 9.96 9.31 9.87 27.85 9 44.49z" fill="#d2dcd0"/><path d="m388.23 659.08h-58.54c-4.4 0-7.84 4.6-7.84 10.48v170c0 5.87 3.44 10.47 7.84 10.47h58.54c4.4 0 7.84-4.6 7.84-10.47v-170c0-5.88-3.44-10.48-7.84-10.48z" fill="#d2dcd0"/><path d="m393.55 629.78c-6.5-6.47-14.45-7.42-22-7.83-9.89-0.53-19.93-0.64-29.84-0.31-6.45 0.21-13.77 1-18.95 8-7.05 9.46-9.66 29.26-8.6 43.92 0.099 1.308 1.188 2.318 2.5 2.32h83.64c1.16 4e-3 2.171-0.791 2.44-1.92 3.64-15.37-0.57-35.59-9.19-44.18z" fill="#a3b6b7"/><path id="Shape" d="m359.65 776.14h17.9l0.03 0.02c1.646 2e-3 3.224-0.654 4.383-1.822 1.16-1.169 1.803-2.752 1.787-4.398-0.093-10.914-0.167-21.914-0.22-33-0.053-11.087-0.13-22.15-0.23-33.19-0.031-3.319-2.682-6.019-6-6.11l-17.74-0.59c-1.65-0.058-3.254 0.551-4.45 1.69-1.205 1.135-1.895 2.714-1.91 4.37-0.16 9.617-0.036 19.81 0.085 29.738 0.015 1.252 0.03 2.5 0.045 3.742 0.015 1.271 0.03 2.547 0.046 3.826 0.12 9.882 0.243 19.956 0.084 29.474-0.03 1.645 0.609 3.233 1.77 4.4 1.164 1.187 2.757 1.854 4.42 1.85zm-1.1-73.78c0.216-0.205 0.502-0.319 0.8-0.32h0.04l17.74 0.59c0.628 0.021 1.13 0.531 1.14 1.16 0.107 11.093 0.183 22.15 0.23 33.17s0.12 22.02 0.22 33c7e-3 0.307-0.112 0.603-0.33 0.82-0.222 0.224-0.525 0.35-0.84 0.35h-17.9c-0.324 4e-3 -0.636-0.126-0.86-0.36-0.212-0.217-0.33-0.508-0.33-0.81 0.16-9.598 0.036-19.753-0.085-29.672-0.015-1.264-0.03-2.524-0.045-3.778-0.015-1.273-0.031-2.55-0.046-3.831-0.121-9.89-0.243-19.973-0.084-29.499-4e-3 -0.311 0.123-0.609 0.35-0.82z" clip-rule="evenodd" fill="#1b1812" fill-rule="evenodd"/><path d="m245.21 151.89c-0.515-1.069-1.709-1.628-2.86-1.34-1.15 0.288-1.94 1.345-1.89 2.53l-44.39 1.92c-0.021-1.161-0.841-2.153-1.977-2.392-1.136-0.24-2.286 0.338-2.773 1.392-7.25 15.32-7.86 29.07-1.71 38.73 5.21 8.18 15.19 13.32 27.37 14.09 1.027 0.06 2.027 0.09 3 0.09 16.43 0 27.46-8.7 31.25-17.78 5.14-12.19-0.41-25.62-6.02-37.24z" fill="#ffe055"/><path d="m240.37 114.37c-12-3.69-24.68-2-35.84-0.57-2.67 0.35-6.33 0.83-9 3.76-2.44 2.67-2.42 6.8-2.39 11.59v1.64c0 1.38 1.119 2.5 2.5 2.5s2.5-1.12 2.5-2.5v-0.09l44.2-1.7c0.048 1.332 1.137 2.39 2.47 2.4 1.371 5e-3 2.489-1.099 2.5-2.47v-5c0.017-4.359-2.79-8.227-6.94-9.56z" fill="#1b1812"/><g fill="#ffe055"><path d="m156.59 212.33c-1.078 4e-3 -2.037-0.683-2.38-1.705s8e-3 -2.148 0.87-2.795l9.2-6.91c0.715-0.536 1.661-0.65 2.482-0.299 0.822 0.351 1.393 1.113 1.5 2s-0.267 1.763-0.982 2.299l-9.2 6.91c-0.429 0.324-0.952 0.499-1.49 0.5z"/><path d="m203.66 235.44h-0.23c-0.661-0.061-1.27-0.381-1.694-0.891-0.424-0.511-0.627-1.168-0.566-1.829l0.7-7.65c0.08-0.893 0.631-1.675 1.445-2.052 0.813-0.377 1.766-0.291 2.5 0.225 0.733 0.516 1.135 1.384 1.055 2.277l-0.7 7.66c-0.129 1.288-1.216 2.267-2.51 2.26z"/><path d="m258.77 229c-0.974-4e-3 -1.857-0.569-2.27-1.45l-3.64-7.88c-0.433-0.817-0.379-1.806 0.14-2.571 0.518-0.766 1.417-1.182 2.336-1.084 0.92 0.099 1.709 0.697 2.054 1.555l3.65 7.88c0.278 0.601 0.306 1.288 0.077 1.909s-0.696 1.125-1.297 1.401c-0.328 0.157-0.687 0.239-1.05 0.24z"/><path d="m285 204.68c-0.37-1e-3 -0.735-0.083-1.07-0.24l-6.45-3.05c-0.807-0.382-1.349-1.166-1.422-2.056-0.073-0.891 0.335-1.752 1.07-2.26s1.685-0.586 2.492-0.204l6.45 3c1.058 0.501 1.627 1.667 1.371 2.809-0.257 1.141-1.271 1.952-2.441 1.951z"/></g><path d="m257.73 133.46c-10.64-7.07-24.45-10.66-39.94-10.32-17 0.34-32.35 5.12-44.4 13.82-14.52 10.49-22.83 23.67-24 38.13-0.072 0.694 0.149 1.387 0.61 1.91 0.475 0.499 1.132 0.785 1.82 0.79h0.06l127.92-2.79c1.365-0.032 2.452-1.154 2.44-2.52-0.09-14.31-12.53-31.08-24.51-39.02z" fill="#a3b6b7"/><path d="m421.11 851h-235.4c-1.381 0-2.5-1.119-2.5-2.5s1.119-2.5 2.5-2.5h235.4c1.381 0 2.5 1.119 2.5 2.5s-1.119 2.5-2.5 2.5z" fill="#1b1812"/></g></g><g transform="matrix(.59066 0 0 .59066 8.5579 -71.776)"><g id="cars"><path d="m806.73 722.11c10.51-80.65 7.68-165.51-6.74-245.55l-50.12-0.75c-7.26-0.11-15.23 0-20.75 4.75-3.91 3.35-5.83 8.4-7.6 13.24l-79.3 216.93c-2.15 5.91 5.17 12.71 11.08 14.83s12.38 0.94 18.66 0.74c44.04-1.46 90.75-2.73 134.77-4.19z" fill="#7c4a54"/><path d="m828.43 691.44c-1.578-6.867-3.504-13.649-5.77-20.32-2.357-7.171-5.506-14.057-9.39-20.53l-0.19-0.34c-4.934-8.749-12.411-15.79-21.44-20.19-7.63-3.58-15.88-4.48-22.22-4.87-8.665-0.6-17.366-0.426-26 0.52-8.211 0.94-16.012 4.092-22.57 9.12-2.26 1.67-4.42 3.52-6.52 5.31-4.61 3.94-9 7.67-14.22 9.66-8.21 3.12-16.93 3-26.17 2.84h-3.36c-2.52 0-7.59-0.14-7.59-0.14-1.042-0.026-1.988 0.601-2.37 1.57-0.389 0.963-0.142 2.065 0.62 2.77 2.46 2.28 3.88 8.43 2.83 12.25l-1.39 3.85 1 1c0.651 0.651 0.89 1.609 0.62 2.49l-2.15 7c-0.757 4.065-3.432 7.514-7.18 9.26l16.25 3.87 2.13 24.22c0.118 1.288 1.196 2.275 2.49 2.28h152.4c1.34-4e-3 2.441-1.061 2.5-2.4 0.373-9.797-0.402-19.604-2.31-29.22z" fill="#f9b735"/><path d="m662.66 672.9 1.39-3.85c1.05-3.82-0.37-10-2.83-12.25-0.236-0.221-0.426-0.486-0.56-0.78-7.13-0.85-14.45-1.56-21.66 0-6.137 1.284-11.949 3.806-17.08 7.41-5.54 3.92-8.86 8.06-11.11 13.81s-2.17 11.3 0.23 15.65c3.39 6.17 8.48 9.59 13.88 9.59 1.421-3e-3 2.832-0.232 4.18-0.68 4.14-1.35 9.48-5.22 12.25-8.17 0.902-0.952 1.75-1.954 2.54-3 2.216 1.693 4.912 2.639 7.7 2.7 0.815 8e-3 1.627-0.103 2.41-0.33 3.91-1.18 7.42-5.37 8.08-9.6l2.15-7c0.27-0.881 0.032-1.839-0.62-2.49z" fill="#fbd2ae"/><path d="m647.18 692.2c-0.95 8e-3 -1.822-0.526-2.247-1.376s-0.329-1.868 0.247-2.624c2.31-3.19 3.29-6.16 2.93-8.85-0.187-1.092-0.468-2.166-0.84-3.21-0.339-0.983-0.623-1.985-0.85-3-0.188-1.31 0.678-2.539 1.974-2.804s2.575 0.526 2.916 1.804c0.197 0.845 0.437 1.68 0.72 2.5 0.453 1.328 0.787 2.693 1 4.08 0.53 4-0.76 8.19-3.84 12.45-0.469 0.642-1.215 1.024-2.01 1.03z" fill="#1b1812"/><path d="m672.44 679.05c-0.314 3e-3 -0.627-0.055-0.92-0.17-1.279-0.51-1.908-1.956-1.41-3.24 2-5 2.1-14.25-0.64-19.18-0.434-0.781-0.418-1.734 0.041-2.5s1.292-1.229 2.185-1.215c0.893 0.015 1.71 0.504 2.144 1.285 3.67 6.59 3.34 17.3 0.93 23.43-0.375 0.959-1.3 1.591-2.33 1.59z" fill="#e78a32"/><path d="m700.68 692.38c-0.319-2e-3 -0.634-0.063-0.93-0.18-0.616-0.249-1.108-0.732-1.367-1.344-0.259-0.611-0.263-1.301-0.013-1.916 4.238-10.473 9.964-20.28 17-29.12 0.859-1.083 2.432-1.264 3.515-0.405 1.082 0.859 1.264 2.432 0.405 3.515-6.743 8.465-12.229 17.858-16.29 27.89-0.383 0.944-1.301 1.561-2.32 1.56z" fill="#e78a32"/><path d="m802 578.24c-1.797-1.332-3.931-2.136-6.16-2.32-0.94-0.12-1.89-0.19-2.85-0.23l0.09-0.44c0.45-2.29 1.38-7.06-1.78-10.13-1.82-1.76-4.23-2.17-6.36-2.42-11.14-1.345-22.401-1.345-33.54 0-3.12 0.4-6.66 1.17-9.19 3.88-2.76 3-3.76 7-4.64 10.57-0.13 0.54-0.26 1.07-0.4 1.58-1.692 6.398-3.027 12.884-4 19.43-0.56 3.85-0.73 8.19 2.27 11.21 2.46 2.47 5.85 2.81 9.1 2.94l28.61 1.17h2.09c2.532 0.131 5.047-0.488 7.23-1.78 3.92-2.59 4.9-7.59 5.48-10.58l0.16-0.78c2.371 0.239 4.766-0.069 7-0.9 4.393-1.677 7.817-5.215 9.35-9.66 1.34-3.68 1.05-8.68-2.46-11.54z" fill="#fbd2ae"/><path d="m756.61 602.61c-2.223 4e-3 -4.412-0.546-6.37-1.6-1.174-0.678-1.594-2.169-0.945-3.36 0.648-1.191 2.128-1.648 3.335-1.03 2.141 1.166 4.687 1.331 6.96 0.45 2.273-0.88 4.044-2.716 4.84-5.02 0.298-0.868 1.048-1.502 1.953-1.65s1.819 0.213 2.377 0.94l0.62 0.79c0.408 0.524 0.59 1.188 0.508 1.846-0.083 0.659-0.423 1.257-0.948 1.664-0.27 0.209-0.579 0.362-0.91 0.45-1.525 2.566-3.861 4.55-6.64 5.64-1.525 0.586-3.146 0.884-4.78 0.88z" fill="#1b1812"/><path d="m676.92 680c2.893 4.636 5.039 9.698 6.36 15 1.181 5.314 1.616 10.766 1.29 16.2v1.46c0.062 1.648-0.079 3.297-0.42 4.91-0.715 2.854-1.692 5.636-2.92 8.31-2.151 5.028-5.251 9.595-9.13 13.45-5.38 5.21-13.55 7-20.55 7-1.76 2e-3 -3.517-0.115-5.26-0.35-12.29-1.71-22.16-11.61-27.16-27.16-5.02-15.72-3.38-32.07 4.27-42.72 9.59-13.44 27.91-17.11 41.59-8.44 0.55 0.28 1.04 0.63 1.55 1 4.148 3.086 7.671 6.935 10.38 11.34zm-30.78 48.9c7.57 3.31 15.2 1.52 18.57-4.48v0.04c3.76-6.62 5.61-17.17 4.21-24.06-1.18-5.6-2.84-9.88-5.18-13.07-3.351-4.69-8.718-7.526-14.48-7.65-1.745-8e-3 -3.478 0.29-5.12 0.88-8 2.91-13.64 12.94-13 23.34 0.65 11 7 21.49 15 25z" clip-rule="evenodd" fill="#1b1812" fill-rule="evenodd"/><path d="m647 673.64c-0.283-0.82-0.523-1.655-0.72-2.5-0.41-1.91 0.06-7 0.9-7.93 1.56-1.44 2.24-2.92 2-4.43-0.286-1.532-1.352-2.802-2.81-3.35-0.381-0.188-0.806-0.271-1.23-0.24-2.071 0.112-4.131 0.383-6.16 0.81-6.138 1.284-11.949 3.806-17.08 7.41-5.54 3.92-8.86 8.06-11.11 13.81s-2.17 11.3 0.23 15.65c3.39 6.17 8.48 9.59 13.88 9.59 1.42-3e-3 2.832-0.232 4.18-0.68 4.14-1.35 9.48-5.22 12.25-8.17 5.13-5.46 7.38-10.81 6.7-15.89-0.223-1.388-0.567-2.753-1.03-4.08z" fill="#fbd2ae"/><g fill="#1b1812"><path d="m640.55 693.26c-0.541 1e-3 -1.068-0.174-1.5-0.5-6.43-4.83-12.5-13.88-11.58-23.19 0.135-1.381 1.364-2.39 2.745-2.255 1.38 0.135 2.39 1.364 2.255 2.745-0.73 7.38 4.3 14.71 9.6 18.7 0.861 0.646 1.212 1.77 0.871 2.791-0.34 1.02-1.295 1.709-2.371 1.709z"/><path d="m631.36 700.52c-0.417-1e-3 -0.826-0.108-1.19-0.31-7-3.8-11.31-12.91-11.93-19.94-0.125-1.381 0.894-2.601 2.275-2.725 1.38-0.124 2.6 0.894 2.725 2.275 0.49 5.57 3.93 13.06 9.34 16 1.009 0.545 1.518 1.707 1.235 2.819-0.284 1.111-1.288 1.887-2.435 1.881z"/><path d="m692.77 723.1c-6.56-10.92-17.74-18.93-31.47-22.56-10.1-2.67-20.52-2.62-30.59-2.58h-5.89c-46.61-0.25-72.75 0.33-73 0.34-1.351 0.038-2.43 1.138-2.44 2.49l-0.09 24.22c-5e-3 0.666 0.256 1.306 0.726 1.777 0.47 0.472 1.109 0.736 1.774 0.733l138.85-0.64c0.901-6e-3 1.729-0.495 2.17-1.28 0.439-0.78 0.423-1.735-0.04-2.5z"/></g><path d="m784.23 681.89c-0.271-0.604-0.771-1.076-1.39-1.311-0.619-0.234-1.307-0.212-1.91 0.061-1.262 0.568-2.558 1.059-3.88 1.47 0.395-4.532 0.535-9.082 0.42-13.63-0.039-1.381-1.189-2.469-2.57-2.43s-2.469 1.189-2.43 2.57c0.132 4.91-0.052 9.823-0.55 14.71-7.83 1.37-16.33 0.82-24.64 0.26-3.2-0.21-6.51-0.43-9.71-0.53-2.66-0.08-7-0.16-10.37-0.23h-2.79c-1.381 0-2.5 1.119-2.5 2.5s1.119 2.5 2.5 2.5h2.75c3.34 0.06 7.5 0.14 10.16 0.23 7.94 8.36 12.18 21.48 10.32 32-0.237 1.351 0.653 2.642 2 2.9 0.146 0.014 0.294 0.014 0.44 0 1.211-1e-3 2.247-0.868 2.46-2.06 1.89-10.67-1.46-23.16-8.44-32.54l2.88 0.18c4.6 0.31 9.26 0.62 13.87 0.62 7.67 0 15.22-0.86 22.17-4 1.222-0.583 1.759-2.032 1.21-3.27z" fill="#e78a32"/><path d="m736.94 720.07c1.86-10.57-1.91-21.23-10.61-30l-2.4-2.41-2.92-0.13c-9-0.41-18.27-0.84-27.15 2.15-17.18 5.76-27.64 16.61-29.45 30.54-0.108 0.723 0.112 1.456 0.6 2 0.475 0.541 1.16 0.851 1.88 0.85h72.52c-0.74 2e-3 -1.442-0.323-1.919-0.889-0.476-0.565-0.678-1.313-0.551-2.041z" fill="#fbd2ae"/><g fill="#1b1812"><path d="m677.76 723c-0.664-8e-3 -1.299-0.28-1.762-0.757-0.464-0.477-0.718-1.118-0.708-1.783 0.219-9.287 5.143-17.827 13.07-22.67 1.195-0.679 2.714-0.267 3.401 0.923s0.285 2.712-0.901 3.407c-6.426 3.943-10.408 10.882-10.57 18.42-0.022 1.377-1.153 2.477-2.53 2.46z"/><path d="m689.69 723c-0.124 0.01-0.247 0.01-0.37 0-0.656-0.094-1.248-0.445-1.644-0.977-0.396-0.531-0.564-1.198-0.466-1.853 1.26-8.54 7.26-16.5 16-21.29 0.784-0.429 1.737-0.407 2.5 0.058 0.764 0.465 1.221 1.302 1.2 2.195-0.02 0.894-0.516 1.708-1.3 2.137-7.43 4-12.47 10.63-13.5 17.62-0.189 1.197-1.209 2.086-2.42 2.11z"/><path d="m634.24 800.48c-1.19 0-29.25-0.37-38-0.1-6.71 0.2-23.39 3.56-33.39 30.23-4 11.78-4.42 30.55-1.07 43.66 4.19 16.39 15.11 33.59 33.32 33.59h1.3c18.75-0.83 37.56 0 37.75 0 0.682 0.034 1.348-0.215 1.84-0.69 0.49-0.47 0.769-1.12 0.77-1.8v-102.37c8e-3 -0.671-0.255-1.317-0.729-1.791-0.475-0.474-1.12-0.737-1.791-0.729z"/></g><g fill="#3f3931"><path d="m605.37 902.08c-6.82 0-15-0.53-15.44-0.55-0.893-0.057-1.688-0.586-2.085-1.389-0.397-0.802-0.336-1.755 0.16-2.5 0.496-0.744 1.352-1.168 2.245-1.111 0.12 0 12 0.76 18.82 0.47 0.893-0.039 1.74 0.401 2.22 1.155 0.481 0.754 0.523 1.707 0.11 2.5-0.412 0.793-1.217 1.306-2.11 1.345-1.2 0.05-2.53 0.08-3.92 0.08z"/><path d="m585.52 896.45c-1.381 0.019-2.516-1.084-2.535-2.465-0.02-1.381 1.084-2.516 2.465-2.535l17.7-0.46c0.663-0.022 1.308 0.223 1.791 0.679 0.483 0.457 0.763 1.087 0.779 1.751 0.028 1.38-1.06 2.526-2.44 2.57l-17.7 0.46z"/><path d="m576.85 884.85c-1.381 0-2.5-1.119-2.5-2.5s1.119-2.5 2.5-2.5l19.37-0.37c0.893-0.018 1.728 0.442 2.19 1.207 0.462 0.764 0.481 1.717 0.05 2.5-0.431 0.782-1.247 1.275-2.14 1.293l-19.38 0.37z"/></g><path d="m922.24 800.48c-1.19 0-29.25-0.37-38-0.1-6.71 0.2-23.39 3.56-33.39 30.23-4 11.78-4.42 30.55-1.07 43.66 4.19 16.39 15.11 33.59 33.32 33.59h1.3c18.75-0.83 37.56 0 37.75 0 0.682 0.034 1.348-0.215 1.84-0.69 0.49-0.47 0.769-1.12 0.77-1.8v-102.37c8e-3 -0.671-0.255-1.317-0.729-1.791-0.475-0.474-1.12-0.737-1.791-0.729z" fill="#1b1812"/><g fill="#3f3931"><path d="m893.37 902.08c-6.82 0-15-0.53-15.44-0.55-0.893-0.057-1.688-0.586-2.085-1.389-0.397-0.802-0.336-1.755 0.16-2.5 0.496-0.744 1.352-1.168 2.245-1.111 0.12 0 12 0.76 18.82 0.47 0.893-0.039 1.74 0.401 2.22 1.155 0.481 0.754 0.523 1.707 0.11 2.5-0.412 0.793-1.217 1.306-2.11 1.345-1.2 0.05-2.53 0.08-3.92 0.08z"/><path d="m873.52 896.45c-1.381 0.019-2.516-1.084-2.535-2.465-0.02-1.381 1.084-2.516 2.465-2.535l17.7-0.46c0.893-0.023 1.73 0.432 2.197 1.194s0.492 1.715 0.065 2.5c-0.426 0.785-1.239 1.283-2.132 1.306l-17.7 0.46z"/><path d="m864.85 884.85c-1.381 0-2.5-1.119-2.5-2.5s1.119-2.5 2.5-2.5l19.37-0.37c0.893-0.018 1.728 0.442 2.19 1.207 0.462 0.764 0.481 1.717 0.05 2.5-0.431 0.782-1.247 1.275-2.14 1.293l-19.38 0.37z"/></g><path d="m801.17 844.06c-0.138-1.269-1.213-2.228-2.49-2.22h-105.16c-1.274 3e-3 -2.342 0.963-2.48 2.23-1.12 10.4-0.49 21.68 1.69 30.2 4.19 16.39 15.11 33.59 33.32 33.59h1.3c11.71-0.52 23.45-0.39 30.65-0.23 2.173 0.538 4.402 0.813 6.64 0.82 1.634-2e-3 3.263-0.149 4.87-0.44 9.85-1.8 18.84-8.91 24.67-19.51 6.5-11.84 8.92-27.2 6.99-44.44z" fill="#1b1812"/><g fill="#3f3931"><path d="m736.37 902.08c-6.82 0-15-0.53-15.44-0.55-0.893-0.057-1.688-0.586-2.085-1.389-0.397-0.802-0.336-1.755 0.16-2.5 0.496-0.744 1.352-1.168 2.245-1.111 0.12 0 12 0.76 18.82 0.47 0.893-0.039 1.74 0.401 2.22 1.155 0.481 0.754 0.523 1.707 0.11 2.5-0.412 0.793-1.217 1.306-2.11 1.345-1.2 0.05-2.53 0.08-3.92 0.08z"/><path d="m716.52 896.45c-1.381 0.019-2.516-1.084-2.535-2.465-0.02-1.381 1.084-2.516 2.465-2.535l17.7-0.46c0.663-0.022 1.308 0.223 1.791 0.679 0.483 0.457 0.763 1.087 0.779 1.751 0.028 1.38-1.06 2.526-2.44 2.57l-17.7 0.46z"/><path d="m707.85 884.85c-1.381 0-2.5-1.119-2.5-2.5s1.119-2.5 2.5-2.5l19.37-0.37c0.893-0.018 1.728 0.442 2.19 1.207 0.462 0.764 0.481 1.717 0.05 2.5-0.431 0.782-1.247 1.275-2.14 1.293l-19.38 0.37z"/><path d="m724.34 867.65h-20.08c-1.381 0-2.5-1.119-2.5-2.5s1.119-2.5 2.5-2.5h20.08c1.38 0 2.5 1.119 2.5 2.5s-1.12 2.5-2.5 2.5z"/></g><path d="m359.28 715.67c-0.9-11.25 5.28-22.68 15-28.4 10.032-5.65 22.28-5.68 32.34-0.08 4.23 2.38 8.08 5.92 9.47 10.57 1.81 6.08-0.91 12.49-3.66 18.2-4.89 10.11-10.89 20.35-21.7 25-9.39 4-17.62-1-23.79-8.09-4.326-4.767-7.01-10.795-7.66-17.2z" fill="#fa7f35"/><path d="m365.08 734.52c5.99 6.9 12.42 10.4 18.92 10.4 2.645-0.036 5.255-0.611 7.67-1.69 11.47-4.92 17.83-15.5 23-26.22 2.92-6.06 5.86-13.09 3.81-20-1.79-6-6.78-9.83-10.64-12-10.835-6.052-24.043-6.011-34.84 0.11-10.735 6.405-16.988 18.274-16.2 30.75 0.689 6.944 3.592 13.482 8.28 18.65zm3.77-3.28c-3.982-4.365-6.457-9.893-7.06-15.77v-0.04c-0.642-10.564 4.677-20.6 13.78-26 9.252-5.234 20.566-5.257 29.84-0.06 4.3 2.43 7.3 5.67 8.3 9.1 1.55 5.2-0.89 10.95-3.52 16.4-4.75 9.8-10.51 19.53-20.43 23.8-6.98 3.01-14.01 0.51-20.91-7.43z" clip-rule="evenodd" fill="#68373e" fill-rule="evenodd"/><path d="m1004.9 755.77c0.19 3.34 0.32 6.63 0.39 9.78 0.22 7.324-0.01 14.655-0.7 21.95-0.28 2.8-0.47 5.82-0.59 9.51-0.1 2.76-0.18 5.59-0.18 8.32-0.05 3.65-0.11 7.42-0.29 11.14-0.11 1.34-0.11 2.85-0.11 4.45v4e-3c-0.2 12.15-0.5 30.487-18.13 35.996-7.116 2.081-14.366 3.675-21.7 4.77-7.066 1.141-14.058-1.153-21.264-3.516-6.878-2.256-13.95-4.576-21.466-4.034-15.947 1.175-32.095 6.74-43.635 10.717-6.834 2.355-12.051 4.153-14.655 4.153h-184.88l-58.86-9.47-45.57 9.47h-225.5c-35.34 0-40.13-2.13-45.34-11.24-4.92-8.64-6.98-26.3-6.92-31.56v-2.013c0.05-6.946 0.102-14.171 3.42-21.167 5.396-11.393 15.66-19.15 24.815-26.068l0.425-0.322c5.92-4.44 42.3-33.14 46.92-36.86 9.78-7.88 16.88-14.96 22.35-22.29 1.52-2.03 2.93-4.12 4.2-6.2 7.77-12.78 12.95-27.05 18-41.78 5.009-14.597 9.982-29.462 14.816-43.91 0.359-1.073 0.717-2.143 1.074-3.21l0.733-2.189c15.291-45.71 31.086-92.924 49.787-138.2 5.72-14.343 15.897-26.469 29.03-34.59 11.22-7.11 40.12-7.05 57.38-7h7.51c14.22-0.27 102.22-0.23 115.22 0.27 22.08 0.86 46.11 1.2 75.61 1.07 17.304-0.079 53.161-0.49 75.075-0.741l0.815-9e-3 19.22-0.22c14.03-0.07 33.08 2.54 43.86 8.54 12.13 6.77 21.61 22.56 36.22 60.32 9.23 23.87 17.02 48.27 23.42 69 7.13 23.15 13.71 46.71 19.54 70.15l0.77 3.08c0.427 1.732 0.856 3.47 1.287 5.215 3.205 12.985 6.492 26.302 9.313 39.525 2.53 11.92 4.47 22.62 5.91 32.72 1.33 9.31 2.21 17.96 2.68 26.44zm-265.62-31.562c22.727-0.683 45.453-1.367 67.49-2.098 10.51-80.65 7.68-165.51-6.74-245.55l-50.12-0.75c-7.26-0.11-15.23 0.02-20.75 4.75-3.91 3.35-5.83 8.4-7.6 13.24-26.426 72.313-52.86 144.62-79.3 216.93-2.15 5.91 5.16 12.7 11.08 14.83 4.562 1.641 9.444 1.311 14.317 0.982 1.452-0.098 2.902-0.196 4.343-0.242 21.978-0.729 44.63-1.41 67.28-2.092z" clip-rule="evenodd" fill="#fa7f35" fill-rule="evenodd"/><path d="m850.47 719c7.73-79.78 2.12-162.43-9.4-241.75 15.9-1.76 32.89-0.68 42.82 0.28 5.286 0.519 9.854 3.91 11.88 8.82 5.44 13.12 16 39.32 19 51.49 13.75 56.67 24.75 111.7 32.73 174-32.09 6.51-59.73 8.44-97.03 7.16z" fill="#98d1ca"/><path d="m418 720.21c2.87 2.44 7.73 2.44 9.43 2.44h129.44c11.11 0 20.6-0.14 23.68-1 5.615-1.481 10.717-4.473 14.75-8.65 1.8-1.9 3.05-4.8 4.21-7.15 1.41-2.85 2.56-5.81 3.79-8.74 9.61-22.84 19.17-45.71 28.36-68.72 14.6-36.58 28.267-73.51 41-110.79 2.24-6.547 4.45-13.103 6.63-19.67 0.67-2 2.88-9.56 3.65-11.36 1.463-3.397 1.703-7.196 0.68-10.75-0.86-2.83-2.95-2.74-5.52-3.12-8.2-1.21-16.51-1.9-24.77-2.57-16.56-1.333-33.156-1.95-49.79-1.85-16.633 0.1-33.213 0.907-49.74 2.42-10.76 1.007-21.48 2.317-32.16 3.93-7.52 1.14-15.48 2.7-21.93 7-1.742 1.004-3.093 2.569-3.83 4.44-1.686 3.233-3.243 6.527-4.67 9.88-2.84 6.73-5.22 13.64-7.59 20.54l-66.75 194.19c-0.87 2.56-1.78 7.1 1.13 9.53z" fill="#98d1ca"/><path d="m918.64 554.16c-18 14.67-34.39 31.29-45.38 51.6-7.63 14.1-12.46 29.59-19.26 44.08-0.2 23.18-1.31 46.27-3.53 69.12 16.14 0.57 30.46 0.53 44.12-0.22 9.41-9.81 10.2-28 17.3-39.61 7.57-12.36 13-24.52 25.73-32.61-5.48-31.52-11.83-61.82-18.98-92.36z" fill="#b5f7fd"/><path d="m904.73 520.33c1.147-0.867 2.307-1.71 3.48-2.53-3.86-10.46-8.44-21.81-11.66-29.61-14.67 10.76-28.8 22.23-40.57 36-2.69 3.16-5.28 6.46-7.82 9.81 1.54 14.94 2.8 29.94 3.78 45 2.64-3.4 5.26-6.83 7.88-10.24 13.45-17.51 27.29-35.11 44.91-48.43z" fill="#b5f7fd"/><g fill="#1b1812"><path d="m963.47 853.22c0.39-16.13-0.72-30.58-9.3-44.66s-28.25-23.56-44.6-17.37c-12.85 4.86-20 17.43-23.82 29.6s-5.51 25.12-12.36 36.15c-3.097 4.869-7.258 8.972-12.17 12h1.31c11.26 0 64.42-1.4 101-7.32-0.189-2.796-0.209-5.601-0.06-8.4z"/><path d="m677.65 869c-0.479-0.853-0.874-1.751-1.18-2.68-1.36-4.19-1.11-8.68-1-13.08 0.39-16.13-0.72-30.58-9.3-44.66s-28.25-23.56-44.6-17.37c-12.85 4.86-20 17.43-23.82 29.6s-5.51 25.12-12.36 36.15c-3.097 4.869-7.258 8.972-12.17 12z"/><path d="m496.17 844.06c-0.138-1.269-1.213-2.228-2.49-2.22h-105.16c-1.274 3e-3 -2.342 0.963-2.48 2.23-1.12 10.4-0.49 21.68 1.69 30.2 4.19 16.39 15.11 33.59 33.32 33.59h1.3c11.71-0.52 23.45-0.39 30.65-0.23 2.173 0.538 4.402 0.813 6.64 0.82 1.634-2e-3 3.263-0.149 4.87-0.44 9.85-1.8 18.84-8.91 24.67-19.51 6.5-11.84 8.92-27.2 6.99-44.44z"/></g><g fill="#3f3931"><path d="m431.37 902.08c-6.82 0-15-0.53-15.44-0.55-0.893-0.057-1.688-0.586-2.085-1.389-0.397-0.802-0.336-1.755 0.16-2.5 0.496-0.744 1.352-1.168 2.245-1.111 0.12 0 12 0.76 18.82 0.47 0.893-0.039 1.74 0.401 2.22 1.155 0.481 0.754 0.523 1.707 0.11 2.5-0.412 0.793-1.217 1.306-2.11 1.345-1.2 0.05-2.53 0.08-3.92 0.08z"/><path d="m411.52 896.45c-1.381 0.019-2.516-1.084-2.535-2.465-0.02-1.381 1.084-2.516 2.465-2.535l17.7-0.46c0.893-0.023 1.73 0.432 2.197 1.194s0.492 1.715 0.065 2.5c-0.426 0.785-1.239 1.283-2.132 1.306l-17.7 0.46z"/><path d="m402.85 884.85c-1.381 0-2.5-1.119-2.5-2.5s1.119-2.5 2.5-2.5l19.37-0.37c1.38-0.028 2.522 1.069 2.55 2.45 0.027 1.381-1.07 2.522-2.45 2.55l-19.38 0.37z"/><path d="m419.34 867.65h-20.08c-1.381 0-2.5-1.119-2.5-2.5s1.119-2.5 2.5-2.5h20.08c1.38 0 2.5 1.119 2.5 2.5s-1.12 2.5-2.5 2.5z"/></g><g fill="#68373e"><path d="m610.36 721.46c-0.343 8e-3 -0.684-0.057-1-0.19-0.615-0.252-1.104-0.739-1.359-1.353-0.255-0.613-0.255-1.303-1e-3 -1.917 0.15-0.34 14.51-35 19.27-49.39 20.21-61 51.92-143.82 78.89-206.1 0.552-1.265 2.025-1.842 3.29-1.29s1.842 2.025 1.29 3.29c-26.91 62.17-58.55 144.83-78.72 205.69-4.82 14.54-18.8 48.31-19.4 49.74-0.387 0.909-1.272 1.504-2.26 1.52z"/><path d="m513.67 828.26c-1.249-3e-3 -2.305-0.923-2.48-2.16-1.91-14.07-3.06-27.63 3.82-38.78 4.7-7.63 12.38-12.58 19.16-17l63.76-41.09c0.751-0.512 1.72-0.576 2.531-0.168 0.812 0.408 1.338 1.224 1.375 2.131 0.038 0.908-0.42 1.764-1.196 2.237l-63.76 41.1c-6.33 4.08-13.51 8.7-17.61 15.36-6 9.75-4.91 22.35-3.12 35.49 0.178 1.365-0.776 2.619-2.14 2.81-0.111 0.033-0.224 0.057-0.34 0.07z"/><path d="m571.77 800.27c-0.901-5e-3 -1.731-0.493-2.174-1.278-0.442-0.786-0.429-1.749 0.034-2.522 7.861-12.748 20.492-21.824 35.08-25.21 1.348-0.301 2.684 0.547 2.985 1.895s-0.547 2.684-1.895 2.985c-13.263 3.077-24.745 11.329-31.89 22.92-0.452 0.75-1.264 1.209-2.14 1.21z"/><path d="m636.65 774.28c-0.234 1e-3 -0.466-0.033-0.69-0.1l-5.35-1.53c-0.897-0.212-1.604-0.901-1.84-1.791-0.236-0.891 0.037-1.839 0.71-2.468s1.637-0.837 2.51-0.541l5.34 1.52c1.209 0.333 1.984 1.511 1.812 2.753s-1.238 2.165-2.492 2.157z"/><path d="m686.91 832.71c-1.11-3e-3 -2.086-0.735-2.4-1.8l-6.5-22.32c-3.09-10.63-6.84-21.4-15.5-26.2-1.17-0.64-2.44-1.18-3.78-1.76-2.72-0.99-5.253-2.433-7.49-4.27-5.2-4.7-5.73-11.47-6.24-18-0.35-4.44-0.68-8.64-2.36-12.14-0.386-0.806-0.313-1.756 0.192-2.493s1.364-1.149 2.255-1.08 1.677 0.607 2.063 1.413c2.08 4.34 2.46 9.2 2.83 13.91 0.46 5.83 0.89 11.33 4.61 14.7 1.841 1.45 3.904 2.595 6.11 3.39 1.444 0.592 2.856 1.26 4.23 2 10.33 5.71 14.5 17.54 17.88 29.17l6 20.48c15.28-0.37 31-1 46.19-1.54 15.38-0.58 31.27-1.18 46.74-1.55 7.56-15.32 12.31-34.34 13.4-53.76 0.05-0.893 0.573-1.692 1.371-2.095 0.799-0.403 1.752-0.35 2.5 0.14 0.749 0.49 1.179 1.342 1.129 2.235-1.16 20.67-6.35 40.94-14.61 57.08-0.417 0.819-1.251 1.342-2.17 1.36-15.9 0.37-32.3 1-48.16 1.59s-32.27 1.21-48.19 1.58z"/><path d="m805.42 826.16c-1.381 0.028-2.523-1.069-2.55-2.45-0.028-1.381 1.069-2.522 2.45-2.55l37.42-1.5c1.38-0.055 2.544 1.019 2.6 2.4 0.055 1.381-1.02 2.545-2.4 2.6l-37.42 1.49z"/><path d="m857.1 810.28c-0.171 0-0.343-0.02-0.51-0.06-0.66-0.131-1.238-0.525-1.604-1.09-0.365-0.565-0.487-1.254-0.336-1.91 4.36-20.702 18.659-37.917 38.21-46 0.834-0.372 1.805-0.26 2.532 0.293s1.095 1.459 0.959 2.362-0.753 1.66-1.611 1.975c-17.918 7.549-31.045 23.343-35.19 42.34-0.207 1.196-1.236 2.074-2.45 2.09z"/><path d="m933 762.68c-0.443 0-0.878-0.118-1.26-0.34-4.827-2.826-10.451-3.979-16-3.28-0.893 0.114-1.78-0.257-2.325-0.973-0.546-0.716-0.668-1.669-0.32-2.5 0.347-0.831 1.112-1.413 2.005-1.527 6.663-0.848 13.421 0.53 19.22 3.92 0.978 0.57 1.451 1.725 1.153 2.817-0.297 1.092-1.291 1.848-2.423 1.843z"/><path d="m946.71 772.53c-1.006-0.02-1.96-0.45-2.642-1.19-0.681-0.74-1.031-1.726-0.968-2.73-0.01-0.855 0.241-1.692 0.72-2.4 0.652-0.954 1.734-1.523 2.89-1.52 1.006 0.02 1.96 0.449 2.642 1.19 0.681 0.74 1.031 1.726 0.968 2.73 7e-3 0.856-0.248 1.693-0.73 2.4-0.647 0.955-1.727 1.525-2.88 1.52z"/></g><g clip-rule="evenodd" fill="#68373e" fill-rule="evenodd"><path d="m753.65 763.09c2.109 0.219 4.229 0.323 6.35 0.31 2.82 0 5.68-0.15 8.52-0.35 0.505-0.026 0.998-0.053 1.484-0.079 1.785-0.098 3.474-0.191 5.306-0.191h7.048c4.595-0.02 9.348-0.041 14.022-0.26l0.033-1e-3c4.134-0.069 9.248-0.156 13.547-2.719 2.736-1.66 4.722-4.316 5.54-7.41 0.63-2.307 0.31-4.771-0.89-6.84-0.473-0.79-1.34-1.259-2.26-1.22l-46.39 2.11h-2.14c-3.41-0.08-8.07-0.14-10.63 2.86-1.88 2.23-2.45 6.03-1.75 11.61 0.145 1.15 1.058 2.051 2.21 2.18zm14.62-4.98c-4.017 0.284-8.047 0.344-12.07 0.18h-0.03c-0.27-3.97 0.45-5.35 0.83-5.73 0.923-1.096 3.849-1.083 6.071-1.072 0.21 1e-3 0.414 2e-3 0.609 2e-3h2.48l44.59-2c0.076 0.589 0.035 1.187-0.12 1.76-0.498 1.805-1.664 3.352-3.26 4.33-3.105 1.871-7.35 1.939-11.067 1.999l-0.053 1e-3h-0.08c-4.6 0.26-9.33 0.26-13.9 0.26-0.768 0-1.54-3e-3 -2.316-7e-3 -1.559-6e-3 -3.128-0.013-4.684 7e-3 -1.993 0.026-4.015 0.124-5.998 0.221-0.335 0.017-0.669 0.033-1.002 0.049z"/><path d="m652.46 727.92c2.96 0.991 6.07 1.461 9.19 1.39 2.07 0 4.14-0.14 6.2-0.28 0.395-0.025 0.792-0.055 1.19-0.086 1.016-0.077 2.039-0.154 3.03-0.154 22.01-0.72 45.07-1.42 67.38-2.09l2.995-0.09c21.376-0.642 43.388-1.303 64.405-2 1.222-0.048 2.231-0.968 2.39-2.18 10.33-79.25 7.99-164.42-6.76-246.31-0.211-1.181-1.23-2.045-2.43-2.06l-50.11-0.75-0.045-1e-3c-6.32-0.09-15.86-0.226-22.365 5.351-4.51 3.86-6.63 9.64-8.33 14.28l-79.29 216.94c-0.86 2.516-0.662 5.273 0.55 7.64 2.32 5.02 7.85 8.91 12 10.4zm78.29-245.44c4.2-3.6 10.26-4.17 16.77-4.17l2.37 0.04 48 0.72c14.21 80.04 16.5 163.16 6.64 240.65-20.618 0.656-42.102 1.303-62.978 1.931l-2.282 0.069c-22.31 0.67-45.39 1.37-67.39 2.1-1.287 0.043-2.575 0.125-3.836 0.205-0.189 0.011-0.376 0.023-0.564 0.035-4.76 0.33-9.25 0.63-13.33-0.83-3.79-1.36-7.75-4.72-9.2-7.81-0.639-1.166-0.776-2.541-0.38-3.81l79.3-216.93 0.025-0.067c1.574-4.293 3.354-9.148 6.855-12.133z"/><path d="m850.38 721.46c7.44 0.26 14.46 0.39 21.19 0.39 25.676 0.183 51.298-2.351 76.44-7.56 1.292-0.253 2.167-1.464 2-2.77-7.34-57.37-17.46-111.13-32.78-174.31-2.95-12.17-13.23-37.71-19.1-51.86-2.388-5.778-7.776-9.761-14-10.35-11.13-1.08-27.69-2.01-43.33-0.27-0.675 0.069-1.293 0.412-1.708 0.948-0.416 0.537-0.594 1.221-0.492 1.892 13.22 91.03 16.29 169.91 9.38 241.15-0.06 0.685 0.162 1.365 0.615 1.883 0.453 0.517 1.098 0.827 1.785 0.857zm94.33-11.61c-29.92 5.91-56.01 7.82-91.5 6.7 6.55-70.26 3.51-147.89-9.29-237.11 15.27-1.4 31.28-0.28 39.73 0.54 4.369 0.429 8.145 3.232 9.82 7.29 4.67 11.28 15.85 38.84 18.85 51.12 15.07 62.14 25.09 115.14 32.39 171.46z"/></g><path d="m670.17 842.42c-2.57-23-15.45-39.79-32-41.85-15.5-1.94-29.87 9.55-37.55 30-4 11.78-4.43 30.55-1.08 43.66 6.39 25 21.15 33.56 33.59 33.56 1.61 1e-3 3.216-0.143 4.8-0.43 19.22-3.48 36.49-26.93 32.24-64.94z" fill="#1b1812"/><path d="m664 844.23c-2.13-19.64-12.86-34-26.7-35.63-15.32-1.84-26 12-31 25.61-3.25 10-3.63 25.87-0.89 37 4.42 17.84 15 28.62 27.61 28.62 1.342-4e-3 2.68-0.124 4-0.36 16.06-2.88 30.48-22.76 26.98-55.24z" fill="#3f3931"/><path d="m649.51 849.39c-1.17-9.59-6.88-16.45-14.53-17.48-5.73-0.77-13.36 2.11-17.63 12.56-1.78 4.83-2 12.51-0.5 17.87 2.06 7.36 7.5 14.11 15.37 14.11 0.971-6e-3 1.938-0.103 2.89-0.29 8.57-1.71 16.27-11.45 14.4-26.77z" fill="#7c4a54"/><path d="m643.68 844.34c-0.763-2.312-2.41-4.228-4.58-5.33-2.41-1.08-5.63-0.5-7.07 1.71-1.25 1.93-0.92 4.48-0.12 6.63 1.49 4 5.17 7.78 9.83 6.48 4.04-1.14 3.03-6.55 1.94-9.49z" fill="#a06d71"/><path d="m958.17 842.42c-2.57-23-15.45-39.79-32-41.85-15.5-1.94-29.87 9.55-37.55 30-4 11.78-4.43 30.55-1.08 43.66 6.39 25 21.15 33.56 33.59 33.56 1.61 1e-3 3.216-0.143 4.8-0.43 19.22-3.48 36.49-26.93 32.24-64.94z" fill="#1b1812"/><path d="m952 844.23c-2.13-19.64-12.86-34-26.7-35.63-15.32-1.84-26 12-31 25.61-3.25 10-3.63 25.87-0.89 37 4.42 17.84 15 28.62 27.61 28.62 1.342-4e-3 2.68-0.124 4-0.36 16.06-2.88 30.48-22.76 26.98-55.24z" fill="#3f3931"/><path d="m937.51 849.39c-1.17-9.59-6.88-16.45-14.53-17.48-5.73-0.77-13.36 2.11-17.63 12.56-1.78 4.83-2 12.51-0.5 17.87 2.06 7.36 7.5 14.11 15.37 14.11 0.971-6e-3 1.938-0.103 2.89-0.29 8.57-1.71 16.27-11.45 14.4-26.77z" fill="#7c4a54"/><path d="m930.68 844.34c-0.763-2.312-2.41-4.228-4.58-5.33-2.41-1.08-5.63-0.5-7.07 1.71-1.25 1.93-0.92 4.48-0.12 6.63 1.49 4 5.17 7.78 9.83 6.48 4.04-1.14 3.03-6.55 1.94-9.49z" fill="#a06d71"/><path d="m483.54 786.93h-0.31c-47.326-5.75-95.174-5.75-142.5 0-0.893 0.107-1.776-0.27-2.315-0.99s-0.654-1.673-0.3-2.5 1.122-1.403 2.015-1.51c47.728-5.8 95.982-5.8 143.71 0 1.381 0.083 2.433 1.269 2.35 2.65s-1.269 2.433-2.65 2.35z" fill="#68373e"/><path d="m337.33 792.24c-4.491-0.092-8.825 1.653-12 4.83-3 2.87-6.18 8.08-6.17 12.74-0.05 2.341 0.882 4.597 2.57 6.22 2.757 2.625 6.434 4.061 10.24 4 4.116-0.04 8.101-1.447 11.33-4 3.62-2.9 7.13-8 6.12-13.75-0.95-5.43-6.16-9.76-12.09-10.04z" fill="#ffe055"/><path d="m492.24 793.88c-4.077-2.868-9.282-3.612-14-2-4.562 1.622-8.279 5.014-10.31 9.41-1.168 2.385-1.662 5.044-1.43 7.69 0.38 3.74 1.59 6.37 3.7 8.06 2.876 2.451 6.495 3.86 10.27 4h0.53c4.154-0.288 8.086-1.981 11.15-4.8 2.789-2.304 4.731-5.47 5.52-9 0.861-5.122-1.24-10.291-5.43-13.36z" fill="#ffe055"/><path d="m404.1 803.28c-1.381 0.138-2.612-0.869-2.75-2.25-0.139-1.381 0.869-2.612 2.25-2.75 3.794-0.772 7.691-0.908 11.53-0.4 0.893 0.118 1.655 0.703 2 1.536 0.344 0.832 0.218 1.785-0.33 2.5-0.549 0.714-1.437 1.082-2.33 0.964-3.286-0.438-6.622-0.323-9.87 0.34-0.165 0.034-0.332 0.054-0.5 0.06z" fill="#68373e"/><path d="m983.5 911h-665c-1.381 0-2.5-1.119-2.5-2.5s1.119-2.5 2.5-2.5h665c1.381 0 2.5 1.119 2.5 2.5s-1.119 2.5-2.5 2.5z" fill="#1b1812"/><path d="m1005.2 765.55c-0.07-3.14-0.2-6.43-0.39-9.78-0.47-8.48-1.35-17.13-2.68-26.44-0.57-4-1.24-8.16-2.11-13.15-0.208-1.168-1.205-2.031-2.391-2.07-1.243-0.046-2.489 0.024-3.72 0.21-4.562 0.661-8.524 3.484-10.64 7.58-2.17 4.26-2.21 9.21-2.05 14.78l1 35.09c0.09 3.42 0.22 7.66 2 11.24 2.34 4.79 7.13 7.53 13 7.53 0.6 0 1.21-0.03 1.83-0.09 1.261-0.12 2.471-0.33 3.391-0.5 1.08-0.215 1.89-1.113 2-2.21v-0.27c0.7-7.284 0.96-14.605 0.76-21.92z" fill="#fa4a1b"/><path d="m553 681.14c19.37-25.5 31.8-57.22 57.54-76.28 12.62-9.35 27.93-15.2 39.9-25.11 7.713-20.627 15.133-41.36 22.26-62.2 2.24-6.547 4.45-13.103 6.63-19.67 0.738-1.993 1.349-4.03 1.83-6.1 0.407-1.816 1.018-3.58 1.82-5.26 1.462-3.397 1.702-7.196 0.68-10.75-0.86-2.83-2.95-2.74-5.52-3.12-2-0.29-3.92-0.54-5.88-0.78-5.78 13.78-16.08 25.79-27.84 35.24-15.89 12.76-34.42 21.61-52.42 31.16-27.59 14.66-54.87 31.84-73.33 57-12.24 16.73-20.15 36.41-33.25 52.46-16 19.61-38.35 32.25-61.64 42.82l-6.9 20.06c-0.89 2.59-1.78 7.13 1.08 9.56s7.73 2.44 9.43 2.44h79c18.038-10.726 33.858-24.802 46.61-41.47z" fill="#b5f7fd"/><path d="m450.57 622.39c6.443-3.625 12.527-7.854 18.17-12.63 16.9-14.22 30.14-32.22 43.38-49.9s26.89-35.43 44.37-49c12.7-9.82 27.12-17.16 40.44-26.15 7.21-4.741 13.877-10.261 19.88-16.46-4.413-0.067-8.83-0.09-13.25-0.07-14.627 0.087-29.233 0.737-43.82 1.95-18.66 13.54-37.23 27.49-52 45.18-13.31 16-23.88 35.34-40.17 47.66l-21.15 61.55c1.42-0.65 2.79-1.37 4.15-2.13z" fill="#b5f7fd"/><g fill="#68373e"><path d="m427.38 725.15h129.49c12.62 0 21.13-0.15 24.38-1.07 6.067-1.609 11.57-4.866 15.9-9.41 1.714-2.024 3.11-4.296 4.14-6.74l0.5-1c1.067-2.221 2.018-4.509 2.939-6.724l0.061-0.146c0.209-0.517 0.423-1.028 0.639-1.543 0.063-0.152 0.127-0.304 0.191-0.457 8.69-20.66 18.77-44.77 28.37-68.77 14.55-36.44 28.37-73.75 41.07-110.9 2.24-6.56 4.47-13.18 6.63-19.7 0.184-0.527 0.463-1.437 0.798-2.526 0.084-0.274 0.172-0.56 0.262-0.854l0.15-0.487c0.814-2.64 1.928-6.258 2.37-7.283 1.689-3.939 1.962-8.342 0.77-12.46-1.229-4.048-4.397-4.46-6.707-4.76h-3e-3l-0.84-0.12c-8.48-1.25-17.22-1.96-24.93-2.58-16.53-1.34-33.35-1.96-50-1.86s-33.46 0.94-50 2.48c-10.76 1.01-21.63 2.34-32.29 3.95-7.41 1.12-15.94 2.7-22.94 7.35-2.096 1.238-3.735 3.122-4.67 5.37-1.75 3.34-3.33 6.72-4.75 10.07-2.825 6.667-5.201 13.563-7.502 20.241l-0.158 0.459-66.74 194.19c-1.82 5.28-1.18 9.75 1.82 12.28 3.57 3 9.05 3 11.05 3zm176.2-254.43h3.51c15.35 0 30.82 0.62 46.02 1.93l0.326 0.027c7.521 0.613 16.073 1.311 24.274 2.523l0.92 0.13c2.269 0.249 2.32 0.418 2.566 1.238l4e-3 0.012c0.853 2.977 0.648 6.157-0.58 9-0.53 1.27-1.49 4.34-2.7 8.27-0.41 1.41-0.79 2.63-1 3.28-2.16 6.5-4.39 13.11-6.62 19.65-12.69 37.07-26.48 74.31-41 110.67-9.58 24.01-19.65 48.04-28.33 68.68l-0.84 2c-0.89 2.19-1.84 4.45-2.89 6.57l-0.52 1.07c-0.827 1.971-1.928 3.816-3.27 5.48-3.707 3.862-8.405 6.63-13.58 8-3.23 0.89-16.58 0.89-23 0.89h-129.5c-1.39 0-5.64 0-7.81-1.84-1.93-1.64-0.74-5.65-0.33-6.85l66.74-194.19 0.116-0.336c2.284-6.635 4.641-13.485 7.424-20.044 1.36-3.22 2.9-6.48 4.58-9.71l0.014-0.026c1.058-1.987 1.224-2.299 2.986-3.474 6.19-4.08 14.05-5.58 20.94-6.58 10.56-1.59 21.33-2.91 32-3.91 16.39-1.53 33.06-2.36 49.55-2.46z" clip-rule="evenodd" fill-rule="evenodd"/><path d="m437.63 720.85c-1.279-0.014-2.342-0.99-2.462-2.264-0.121-1.273 0.738-2.432 1.992-2.686l67.64-13.08c0.877-0.179 1.782 0.124 2.376 0.794 0.593 0.671 0.784 1.607 0.5 2.455-0.284 0.849-0.999 1.482-1.876 1.661l-67.65 13.08c-0.172 0.031-0.346 0.045-0.52 0.04z"/><path d="m504.25 719.9c-1.381 0.091-2.574-0.954-2.665-2.335-0.092-1.381 0.954-2.574 2.335-2.665l67.17-8.91c0.893-0.118 1.781 0.25 2.33 0.964 0.548 0.715 0.674 1.668 0.33 2.5-0.345 0.833-1.107 1.418-2 1.536l-67.17 8.92z"/><path d="m468.14 723.12c-0.962-2e-3 -1.837-0.556-2.251-1.424-0.414-0.869-0.293-1.897 0.311-2.646l6.63-8.14c0.565-0.693 1.456-1.032 2.338-0.89 0.883 0.142 1.622 0.744 1.94 1.58 0.318 0.835 0.167 1.777-0.398 2.47l-6.63 8.13c-0.473 0.586-1.187 0.925-1.94 0.92z"/><path d="m535.34 722.78c-0.92-6e-3 -1.763-0.515-2.197-1.326-0.434-0.812-0.389-1.796 0.117-2.564 1.965-2.911 4.478-5.411 7.4-7.36 1.152-0.762 2.703-0.447 3.465 0.705 0.762 1.151 0.447 2.703-0.705 3.465-2.377 1.583-4.417 3.623-6 6-0.47 0.684-1.25 1.089-2.08 1.08z"/><path d="m553.72 831.81c-3.748-5.284-9.852-8.39-16.33-8.31h-220.79c-0.182 0-0.363 0.02-0.54 0.06-2.615 0.448-5.276 0.565-7.92 0.35-1.61-0.06-3.26-0.12-4.92-0.06-6.28 0.24-11.15 2.46-13.7 6.25-2.2 3.27-2.43 7.13-2.49 10.81-0.039 4.512 0.171 9.022 0.63 13.51 0.964 10.444 9.751 18.42 20.24 18.37h217.19c2.06 0 4.93 0.27 7.71 0.52 3 0.27 6.08 0.56 8.54 0.56h0.56c5.88-0.11 11-2.38 14.08-6.2 4.16-5.22 4-12.37 3.33-18s-1.82-12.41-5.59-17.86z"/><path d="m1008 798.35c-3.94-4-9.669-4-14.749-3.45-6.77 0.69-13.64 2.1-18 7.68-4.09 5.24-4.41 12.55-4.65 17.88l-1 22.27c-0.36 7.65-0.9 19.22 9.9 21 1.982 0.343 3.989 0.517 6 0.52 9.43 0 16.269-4 19.569-8 4.87-5.85 5.63-13.83 6-22.19l0.91-19.12c0.37-5.74 0.31-12.32-3.98-16.59z"/><path d="m370.52 739c-1.056 0-1.998-0.662-2.354-1.655-0.357-0.994-0.051-2.104 0.764-2.775 8.86-7.27 15.35-13.82 20.43-20.62 1.47-2 2.84-4 4.07-6 4.147-6.949 7.709-14.231 10.65-21.77 0.516-1.281 1.973-1.901 3.255-1.385 1.281 0.516 1.901 1.974 1.385 3.255-3.042 7.793-6.721 15.322-11 22.51-1.31 2.14-2.77 4.3-4.34 6.4-5.32 7.13-12.08 14-21.25 21.49-0.455 0.368-1.026 0.563-1.61 0.55z"/></g><path d="m641.49 742.29c11.67 9.6 29.53 10.81 42.39 2.87s19.78-24.45 16.42-39.18c-1.352-6.481-4.82-12.328-9.86-16.62-9.37-7.62-23.63-7.28-34-1.12s-17.22 17.17-20.71 28.74c-1.34 4.44-1 8.11-0.27 12.69s2.44 9.67 6.03 12.62z" fill="#fa7f35"/><path d="m639.87 744.22c7.087 5.68 15.917 8.743 25 8.67 7.15 0.041 14.173-1.898 20.29-5.6 13.76-8.5 21.14-26.11 17.55-41.87-1.479-7.023-5.25-13.355-10.72-18-9.72-7.9-24.88-8.44-36.88-1.33-9.99 5.92-17.74 16.64-21.82 30.16-1.57 5.2-1.09 9.38-0.35 13.83s2.54 10.52 6.93 14.14zm17.82-53.83c4.701-2.767 10.055-4.227 15.51-4.23 5.653-0.121 11.178 1.693 15.66 5.14 4.605 3.939 7.771 9.296 9 15.23 3.258 14.193-2.883 28.884-15.273 36.536-12.39 7.651-28.276 6.563-39.507-2.706-3.18-2.63-4.58-7.49-5.18-11.1-0.8-4.56-0.94-7.76 0.2-11.56 3.73-12.31 10.68-22.02 19.59-27.31z" clip-rule="evenodd" fill="#68373e" fill-rule="evenodd"/></g></g><g transform="matrix(.51544 0 0 .51544 66.715 27.652)"><path d="m197.52 821.53c-3.518 0-6.37-2.852-6.37-6.37l-1.62-411.08c-6e-3 -1.377-1.123-2.49-2.5-2.49h-19.42c-0.662-3e-3 -1.298 0.258-1.767 0.726-0.47 0.467-0.733 1.102-0.733 1.764l-1.62 411.09c-6e-3 3.516-2.854 6.364-6.37 6.37-9.285 0.011-16.809 7.535-16.82 16.82v2.82c5e-3 4.874 3.955 8.824 8.83 8.83h56.38c4.874-6e-3 8.824-3.956 8.83-8.83v-2.82c-6e-3 -9.289-7.531-16.819-16.82-16.83z" fill="#a3b6b7"/><circle id="Oval" cx="177.32" cy="322.01" r="101.36" fill="#fa4a1b"/><path d="m240.29 312.36c0.022-2.064-0.789-4.049-2.249-5.508-1.46-1.458-3.447-2.266-5.511-2.242-35.18 0.43-93.18 0.35-110.11 0.31-4.16-0.023-7.568 3.3-7.65 7.46-0.09 3.06-0.16 6.4-0.24 9.74-0.07 3.16-0.14 6.32-0.22 9.25-0.056 2.067 0.726 4.068 2.169 5.549s3.424 2.314 5.491 2.311h0.31c35.2-1.45 93.39-1.29 110.38-1.2 2.057 0.014 4.033-0.802 5.482-2.262 1.448-1.46 2.248-3.441 2.218-5.498-0.08-5.13-0.13-12.4-0.07-17.91z" fill="#f6f6f6"/><path d="m247.41 851h-140.18c-1.38 0-2.5-1.119-2.5-2.5s1.12-2.5 2.5-2.5h140.18c1.381 0 2.5 1.119 2.5 2.5s-1.119 2.5-2.5 2.5z" fill="#1b1812"/></g></g></svg>
